<?xml version="1.0" standalone="no"?><!DOCTYPE svg PUBLIC "-//W3C//DTD SVG 1.1//EN" "http://www.w3.org/Graphics/SVG/1.1/DTD/svg11.dtd"><svg t="1564736517286" class="icon" viewBox="0 0 1024 1024" version="1.1" xmlns="http://www.w3.org/2000/svg" p-id="2580" width="64" height="64" xmlns:xlink="http://www.w3.org/1999/xlink"><defs><style type="text/css"></style></defs><path d="M1000.673684 154.703158L819.159579 19.361684l-0.476632-0.444631C806.593684 7.742316 791.045053 1.581474 774.905263 1.581474c-13.792 0-27.006316 4.409263-38.246737 12.811789L512 181.574737 287.383579 14.378105C276.143158 6.004211 262.900211 1.583158 249.123368 1.583158c-16.109474 0-31.644632 6.160842-43.735579 17.335579l-0.488421 0.444631L23.353263 154.703158C9.520842 167.816421 1.583158 186.458947 1.583158 205.936842v437.274947c0 11.045053 10.245053 19.403789 10.245053 19.40379 4.180211 3.132632 101.089684 75.821474 109.505684 82.197895 0.043789 0.028632 0.072421 0.058947 0.114526 0.087579 0.072421 0.042105 0.144842 0.101053 0.188632 0.143158 0 0 0-0.028632 0.013473-0.028632 1.195789 0.774737 2.622316 1.249684 4.149895 1.249684 4.323368 0 7.824842-3.648 7.824842-8.158316v-0.015158h0.015158v-456.808421c0.129684-21.445053 9.121684-40.661895 23.329684-53.87621a69.465263 69.465263 0 0 1 9.19579-7.238737l24.510316-19.260632 15.750736-12.395789 1.786948-1.406316c0.549053-0.431158 1.094737-0.875789 1.657263-1.291789 11.471158-8.732632 25.608421-13.918316 40.897684-13.918316 14.282105 0 27.553684 4.510316 38.590316 12.208842a70.736842 70.736842 0 0 1 3.747368 2.814316l21.731369 16.316631 158.888421 119.311158c11.242105 8.373895 24.485053 12.798316 38.275368 12.798316 13.790316 0 27.019789-4.424421 38.231579-12.769684l169.350737-127.139369 13.402947-10.054736-0.015158 0.043789c11.354947-8.431158 25.232842-13.414737 40.218948-13.414737 14.554947 0 28.058947 4.697263 39.225263 12.682106l-0.013474-0.028632 0.547369 0.431158c1.024 0.747789 2.017684 1.522526 2.997894 2.298947l4.97179 3.848421 3.833263 2.959158c-0.015158-0.028632-0.030316-0.057263-0.030316-0.085895l33.274948 26.169264a71.351579 71.351579 0 0 1 8.875789 6.994526c14.368 13.298526 23.445895 32.717474 23.474526 54.362947v262.09179c-0.518737 23.082105-11.297684 43.506526-27.767578 56.474947-0.591158 0.459789-1.195789 0.890947-1.786948 1.322105l-43.794526 32.847158-245.064421 183.858527-19.641263 14.736842 0.057263-0.101053c-11.440842 8.631579-25.477053 13.731368-40.665263 13.731368-13.820632 0-26.674526-4.250947-37.497264-11.504842-1.973895-1.335579-3.904-2.728421-5.734736-4.250947-4.826947-3.590737-10.014316-7.427368-15.491369-11.491368-68.104421-50.512842-179.568842-133.187368-186.918737-138.672843-0.101053-0.070737-0.244211-0.158316-0.387368-0.24421a7.513263 7.513263 0 0 0-4.512-1.522526c-4.264421 0-7.723789 3.604211-7.72379 8.057263v144.060631c0 10.398316 6.066526 14.420211 6.066527 14.420211l213.591579 163.691789c11.211789 8.547368 25.032421 13.271579 38.923789 13.271579 14.108632 0 27.536842-4.581053 38.893474-13.285052l444.463158-338.991158c16.946526-12.941474 27.061895-33.781895 27.061895-55.757474V205.935158c0-19.52-7.910737-38.162526-21.744843-51.232" p-id="2581" fill="#fcdb00"></path></svg>